<?xml version="1.0" encoding="UTF-8"?>
<!DOCTYPE svg PUBLIC "-//W3C//DTD SVG 1.1//EN" "http://www.w3.org/Graphics/SVG/1.1/DTD/svg11.dtd">
<!-- Creator: CorelDRAW 2020 (64-Bit) -->
<svg xmlns="http://www.w3.org/2000/svg" xml:space="preserve" width="44.9543mm" height="17.1518mm" version="1.1" style="shape-rendering:geometricPrecision; text-rendering:geometricPrecision; image-rendering:optimizeQuality; fill-rule:evenodd; clip-rule:evenodd"
viewBox="0 0 379.72 144.88"
 xmlns:xlink="http://www.w3.org/1999/xlink"
 xmlns:xodm="http://www.corel.com/coreldraw/odm/2003">
 <defs>
  <style type="text/css">
   <![CDATA[
    .str0 {stroke:#F37425;stroke-width:0.64;stroke-miterlimit:10}
    .fil1 {fill:#333333;fill-rule:nonzero}
    .fil0 {fill:#F37425;fill-rule:nonzero}
   ]]>
  </style>
 </defs>
 <g id="Слой_x0020_1">
  <metadata id="CorelCorpID_0Corel-Layer"/>
  <polygon class="fil0 str0" points="359.29,60.59 379.4,60.59 379.4,40.48 359.29,40.48 359.29,0.32 278.86,0.32 278.86,20.43 339.18,20.43 339.18,120.62 319.08,120.62 319.08,40.48 278.86,40.48 278.86,60.59 298.97,60.59 298.97,120.62 278.86,120.62 278.86,140.73 339.18,140.73 339.18,120.74 359.29,120.74 359.29,100.8 379.4,100.8 379.4,80.69 359.29,80.69 359.29,80.64 "/>
  <path class="fil1" d="M156.73 139.26c-2.44,0 -4.76,-2.04 -4.76,-5.09 0,-3.05 2.32,-5.11 4.76,-5.11 2.49,0 4.63,1.99 4.63,5.09 0,3.23 -2.09,5.12 -4.63,5.12zm0.36 -11.96c-2.42,0 -3.97,1.35 -5.04,2.93l0 -8.07 -1.96 0 0 18.58 1.96 0 0 -2.52c1.02,1.48 2.59,2.8 5.04,2.8 3.18,0 6.28,-2.54 6.28,-6.84 0,-4.38 -3.13,-6.87 -6.28,-6.87z"/>
  <path class="fil1" d="M171.97 138.54l-4.79 -10.97 -2.16 0 5.98 13.11c-0.79,1.86 -1.53,2.47 -2.7,2.47 -0.84,0 -1.43,-0.15 -2.07,-0.48l-0.66 1.55c0.89,0.44 1.71,0.66 2.8,0.66 1.99,0 3.26,-0.99 4.37,-3.71l5.52 -13.59 -2.09 0 -4.22 10.97z"/>
  <polygon class="fil1" points="189.19,140.73 191.15,140.73 191.15,127.58 189.19,127.58 "/>
  <polygon class="fil1" points="189.07,124.7 191.3,124.7 191.3,122.54 189.07,122.54 "/>
  <path class="fil1" d="M201.59 139.26c-2.49,0 -4.63,-1.98 -4.63,-5.09 0,-3.23 2.09,-5.11 4.63,-5.11 2.44,0 4.76,2.04 4.76,5.06 0,3.08 -2.32,5.14 -4.76,5.14zm4.68 -9.16c-1.02,-1.47 -2.6,-2.8 -5.04,-2.8 -3.16,0 -6.29,2.55 -6.29,6.85 0,4.38 3.13,6.87 6.29,6.87 2.41,0 3.97,-1.35 5.04,-2.93l0 2.65 1.96 0 0 -18.58 -1.96 0 0 7.94z"/>
  <path class="fil1" d="M214.57 131.01l0 -3.43 -1.96 0 0 13.16 1.96 0 0 -5.24c0,-3.97 2.34,-6.03 5.21,-6.03l0.16 0 0 -2.11c-2.49,-0.1 -4.4,1.48 -5.37,3.66z"/>
  <path class="fil1" d="M230.95 135.9c0,2.09 -1.96,3.54 -4.38,3.54 -1.78,0 -3.31,-0.97 -3.31,-2.62 0,-1.63 1.4,-2.69 3.84,-2.69 1.6,0 2.88,0.28 3.84,0.56l0 1.22zm-3.72 -8.53c-1.93,0 -3.33,0.46 -4.79,1.12l0.59 1.61c1.22,-0.57 2.44,-0.94 4,-0.94 2.47,0 3.89,1.22 3.89,3.56l0 0.4c-1.17,-0.33 -2.34,-0.55 -4.02,-0.55 -3.33,0 -5.62,1.47 -5.62,4.3 0,2.75 2.44,4.14 4.91,4.14 2.32,0 3.82,-1.06 4.73,-2.24l0 1.96 1.93 0 0 -8.04c0,-1.68 -0.46,-2.95 -1.37,-3.87 -0.94,-0.94 -2.39,-1.45 -4.25,-1.45z"/>
  <path class="fil1" d="M252.07 127.29c-2.29,0 -3.69,1.17 -4.63,2.63 -0.71,-1.48 -2.09,-2.63 -4.22,-2.63 -2.22,0 -3.38,1.2 -4.25,2.49l0 -2.21 -1.96 0 0 13.16 1.96 0 0 -7.51c0,-2.42 1.58,-4.14 3.66,-4.14 2.09,0 3.39,1.45 3.39,3.92l0 7.74 1.93 0 0 -7.58c0,-2.6 1.65,-4.07 3.64,-4.07 2.14,0 3.41,1.42 3.41,3.97l0 7.69 1.96 0 0 -8.14c0,-3.26 -1.86,-5.3 -4.89,-5.3z"/>
  <path class="fil1" d="M18.28 9.63l0 16.77c-0.33,3.21 -2.22,4.88 -5.07,4.88 -3.14,0 -4.98,-2.01 -4.98,-5.9l0 -16.18 -8.22 0 0 18.78c0,6.66 3.63,10.77 9.85,10.77 4.12,0 6.54,-2.17 8.43,-4.57l0 3.97 0 0.06 8.22 0 0 -27.92c0,-2.44 1.19,-3.36 2.92,-3.36 0.59,0 1.08,0.05 1.73,0.16l0 -6.44c-1.14,-0.22 -2.05,-0.33 -3.57,-0.33 -6.06,0 -9.31,2.92 -9.31,9.31z"/>
  <path class="fil1" d="M50.63 8.66c-4.16,0 -6.6,2.22 -8.49,4.65l0 -12.99 -8.22 0 0 46.59 8.22 0 0 -24.9c0,-3.89 2,-5.89 5.14,-5.89 3.14,0 4.98,2 4.98,5.89l0 16.18 8.22 0 0 -18.78c0,-6.65 -3.63,-10.77 -9.85,-10.77z"/>
  <path class="fil1" d="M130.15 8.65c-4.17,0 -6.6,2.22 -8.49,4.66l0 -4.11 -8.22 0 0 37.66 8.22 0 0 -24.84c0,-3.9 2,-5.9 5.14,-5.9 3.14,0 4.98,2 4.98,5.9l0 16.18 8.22 0 0 -18.78c0,-6.65 -3.62,-10.77 -9.85,-10.77z"/>
  <path class="fil1" d="M183.16 25.37c0,3.9 -1.89,5.9 -4.98,5.9 -3.08,0 -4.82,-2 -4.82,-5.9l0 -16.18 -8.22 0 0 16.18c0,3.9 -1.89,5.9 -4.98,5.9 -3.08,0 -4.82,-2 -4.82,-5.9l0 -16.18 -8.22 0 0 18.89c0,6.98 3.68,10.66 9.79,10.66 3.95,0 6.98,-1.63 9.53,-4.6 1.51,2.93 4.38,4.6 8.17,4.6 4.17,0 6.66,-2.22 8.55,-4.65l0 4.12 8.22 0 0 -29.01 -8.22 0 0 16.18z"/>
  <path class="fil1" d="M208.13 38.74c4.12,0 6.54,-2.17 8.43,-4.57l0 3.97 0 0.05 8.23 0 0 -27.92c0,-2.44 1.19,-3.36 2.92,-3.36 0.6,0 1.09,0.06 1.73,0.16l0 -6.44c-1.14,-0.22 -2.06,-0.33 -3.57,-0.33 -6.06,0 -9.31,2.92 -9.31,9.31l0 16.77c-0.33,3.22 -2.23,4.88 -5.07,4.88 -3.13,0 -4.98,-2 -4.98,-5.89l0 -16.19 -8.22 0 0 18.78c0,6.65 3.63,10.77 9.85,10.77z"/>
  <path class="fil1" d="M103.49 19.42c0,-6.66 -3.62,-10.77 -9.85,-10.77 -4.17,0 -6.6,2.22 -8.49,4.65l0 -4.12 -8.22 0 0 29.01 8.22 0 0 -16.18c0,-3.9 2,-5.89 5.14,-5.89 3.14,0 4.98,2 4.98,5.89l0 16.18 -0.01 0.01 0.01 0 0 8.71 8.22 0 0 -8.71 7.7 0 0 -7.58 -7.7 0 0 -11.2z"/>
  <path class="fil1" d="M248.91 8.66c-4.16,0 -6.6,2.22 -8.5,4.65l0 -12.99 -8.22 0 0 46.59 8.22 0 0 -24.9c0,-3.89 2,-5.89 5.14,-5.89 3.14,0 4.98,2 4.98,5.89l0 16.18 8.22 0 0 -18.78c0,-6.65 -3.63,-10.77 -9.85,-10.77z"/>
  <path class="fil1" d="M172.24 100.68l0 -18.78c0,-6.66 -3.63,-10.77 -9.85,-10.77 -4.17,0 -6.6,2.22 -8.49,4.66l0 -4.12 -8.22 0 0 29.01 8.22 0 0 -16.18c0,-3.89 2,-5.9 5.14,-5.9 3.14,0 4.98,2 4.98,5.9l0 16.18 8.22 0z"/>
  <polygon class="fil1" points="191.09,92.67 185.82,92.67 185.82,71.67 177.59,71.67 177.59,100.68 191.09,100.68 "/>
  <path class="fil1" d="M258.75 92.52l0 -10.62c0,-6.66 -3.62,-10.78 -9.85,-10.78 -4.17,0 -6.6,2.22 -8.5,4.66l0 -4.12 -8.22 0 -0.01 37.67 0.01 0 26.57 0 0 -7.58 -18.34 0 0 -17.26c0,-3.9 2.01,-5.9 5.14,-5.9 3.14,0 4.98,2 4.98,5.9l-0 8.03 8.22 0z"/>
  <path class="fil1" d="M215.01 88.82c0,3.31 -1.95,5.43 -4.78,5.43 -4.56,0 -7.66,-4.09 -7.66,-8.38 0,-4.4 2.94,-8.23 7.66,-8.23l4.78 0 0 11.18zm8.2 -0.33l0 -10.85 5.98 0 0 -6.92 -5.98 0 0 -9.53 -8.2 0 0 9.53 -4.78 0c-9.07,0 -15.8,6.79 -15.8,15.15 0,8.47 6.68,15.31 15.69,15.31 0.04,0 0.07,-0.01 0.11,-0.01 7.92,-0.15 12.98,-4.77 12.98,-12.68z"/>
 </g>
</svg>
