<?xml version="1.0" encoding="UTF-8"?>
<!DOCTYPE svg PUBLIC "-//W3C//DTD SVG 1.1//EN" "http://www.w3.org/Graphics/SVG/1.1/DTD/svg11.dtd">
<!-- Creator: CorelDRAW 2020 (64-Bit) -->
<svg xmlns="http://www.w3.org/2000/svg" xml:space="preserve" width="57.1833mm" height="17.1138mm" version="1.1" style="shape-rendering:geometricPrecision; text-rendering:geometricPrecision; image-rendering:optimizeQuality; fill-rule:evenodd; clip-rule:evenodd"
viewBox="0 0 587.34 175.78"
 xmlns:xlink="http://www.w3.org/1999/xlink"
 xmlns:xodm="http://www.corel.com/coreldraw/odm/2003">
 <defs>
  <style type="text/css">
   <![CDATA[
    .fil1 {fill:#333333;fill-rule:nonzero}
    .fil0 {fill:#F37425;fill-rule:nonzero}
   ]]>
  </style>
 </defs>
 <g id="Слой_x0020_1">
  <metadata id="CorelCorpID_0Corel-Layer"/>
  <polygon class="fil0" points="562.89,73.28 587.34,73.28 587.34,48.83 562.89,48.83 562.89,0 465.09,0 465.09,24.45 538.44,24.45 538.44,146.28 513.99,146.28 513.99,48.83 465.09,48.83 465.09,73.28 489.54,73.28 489.54,146.28 465.09,146.28 465.09,170.73 538.44,170.73 538.44,146.42 562.89,146.42 562.89,122.18 587.34,122.18 587.34,97.73 562.89,97.73 562.89,97.66 "/>
  <path class="fil1" d="M316.57 168.94c-2.97,0 -5.79,-2.48 -5.79,-6.19 0,-3.71 2.82,-6.22 5.79,-6.22 3.03,0 5.63,2.41 5.63,6.19 0,3.94 -2.54,6.23 -5.63,6.23zm0.44 -14.55c-2.94,0 -4.83,1.64 -6.12,3.56l0 -9.81 -2.39 0 0 22.59 2.39 0 0 -3.06c1.24,1.8 3.15,3.4 6.12,3.4 3.87,0 7.64,-3.09 7.64,-8.32 0,-5.33 -3.81,-8.36 -7.64,-8.36z"/>
  <path class="fil1" d="M335.11 168.08l-5.82 -13.34 -2.63 0 7.27 15.94c-0.96,2.26 -1.85,3 -3.28,3 -1.02,0 -1.74,-0.18 -2.51,-0.59l-0.8 1.9c1.09,0.53 2.08,0.8 3.41,0.8 2.41,0 3.96,-1.21 5.32,-4.52l6.71 -16.52 -2.54 0 -5.13 13.34z"/>
  <polygon class="fil1" points="356.05,170.73 358.43,170.73 358.43,154.74 356.05,154.74 "/>
  <polygon class="fil1" points="355.9,151.24 358.62,151.24 358.62,148.61 355.9,148.61 "/>
  <path class="fil1" d="M371.12 168.94c-3.03,0 -5.63,-2.41 -5.63,-6.19 0,-3.93 2.54,-6.22 5.63,-6.22 2.97,0 5.78,2.48 5.78,6.16 0,3.75 -2.82,6.25 -5.78,6.25zm5.69 -11.14c-1.24,-1.79 -3.16,-3.41 -6.12,-3.41 -3.84,0 -7.65,3.1 -7.65,8.32 0,5.32 3.81,8.36 7.65,8.36 2.94,0 4.83,-1.64 6.12,-3.56l0 3.22 2.38 0 0 -22.59 -2.38 0 0 9.66z"/>
  <path class="fil1" d="M386.9 158.91l0 -4.17 -2.38 0 0 16 2.38 0 0 -6.37c0,-4.83 2.84,-7.34 6.34,-7.34l0.19 0 0 -2.57c-3.03,-0.12 -5.36,1.79 -6.53,4.45z"/>
  <path class="fil1" d="M406.83 164.86c0,2.54 -2.38,4.3 -5.33,4.3 -2.16,0 -4.02,-1.18 -4.02,-3.19 0,-1.98 1.71,-3.28 4.67,-3.28 1.95,0 3.5,0.34 4.67,0.68l0 1.49zm-4.52 -10.37c-2.35,0 -4.05,0.56 -5.82,1.36l0.72 1.95c1.49,-0.69 2.97,-1.15 4.86,-1.15 3,0 4.73,1.48 4.73,4.33l0 0.49c-1.42,-0.4 -2.85,-0.67 -4.89,-0.67 -4.06,0 -6.84,1.79 -6.84,5.22 0,3.34 2.97,5.04 5.97,5.04 2.82,0 4.64,-1.3 5.75,-2.72l0 2.38 2.35 0 0 -9.78c0,-2.04 -0.55,-3.58 -1.67,-4.7 -1.15,-1.14 -2.91,-1.76 -5.17,-1.76z"/>
  <path class="fil1" d="M432.51 154.4c-2.79,0 -4.48,1.43 -5.63,3.19 -0.87,-1.79 -2.54,-3.19 -5.13,-3.19 -2.7,0 -4.12,1.45 -5.17,3.03l0 -2.69 -2.39 0 0 16 2.39 0 0 -9.13c0,-2.94 1.92,-5.04 4.45,-5.04 2.54,0 4.12,1.76 4.12,4.77l0 9.41 2.35 0 0 -9.23c0,-3.16 2.01,-4.95 4.42,-4.95 2.6,0 4.15,1.74 4.15,4.82l0 9.35 2.38 0 0 -9.91c0,-3.96 -2.26,-6.44 -5.94,-6.44z"/>
  <path class="fil1" d="M18.65 41.13c1.19,0 2.32,-0.23 3.36,-0.7 1.05,-0.46 1.97,-1.13 2.76,-2 0.8,-0.86 1.43,-1.9 1.9,-3.09 0.46,-1.2 0.7,-2.55 0.7,-4.06l0 -0.13c0,-1.46 -0.24,-2.8 -0.7,-4.03 -0.47,-1.22 -1.1,-2.26 -1.9,-3.13 -0.79,-0.87 -1.71,-1.53 -2.76,-2 -1.04,-0.46 -2.16,-0.7 -3.36,-0.7 -1.2,0 -2.33,0.24 -3.37,0.7 -1.04,0.47 -1.95,1.13 -2.73,2 -0.78,0.86 -1.4,1.91 -1.86,3.13 -0.46,1.22 -0.7,2.56 -0.7,4.03l0 0.13c0,1.46 0.24,2.81 0.7,4.03 0.47,1.22 1.08,2.26 1.86,3.13 0.78,0.86 1.69,1.53 2.73,2 1.04,0.47 2.17,0.7 3.37,0.7zm-18.65 -27.76l10.12 0 0 5.12c1.24,-1.69 2.74,-3.07 4.49,-4.16 1.75,-1.08 3.96,-1.63 6.62,-1.63 2.09,0 4.11,0.41 6.06,1.2 1.96,0.8 3.68,1.99 5.19,3.57 1.51,1.57 2.72,3.5 3.63,5.79 0.91,2.29 1.36,4.92 1.36,7.89l0 0.13c0,2.97 -0.46,5.6 -1.36,7.88 -0.91,2.29 -2.11,4.22 -3.59,5.79 -1.49,1.57 -3.21,2.76 -5.16,3.56 -1.96,0.8 -4,1.2 -6.13,1.2 -2.7,0 -4.93,-0.53 -6.69,-1.59 -1.75,-1.07 -3.22,-2.31 -4.42,-3.73l0 15.31 -10.12 0 0 -46.32z"/>
  <path class="fil1" d="M62.57 41.13c1.47,0 2.77,-0.26 3.9,-0.77 1.13,-0.51 2.1,-1.21 2.89,-2.09 0.81,-0.89 1.41,-1.92 1.83,-3.09 0.42,-1.18 0.63,-2.43 0.63,-3.76l0 -0.13c0,-1.33 -0.22,-2.58 -0.67,-3.76 -0.44,-1.18 -1.09,-2.22 -1.93,-3.13 -0.85,-0.91 -1.84,-1.63 -2.99,-2.17 -1.16,-0.53 -2.42,-0.8 -3.8,-0.8 -1.46,0 -2.76,0.26 -3.89,0.76 -1.13,0.51 -2.09,1.21 -2.9,2.1 -0.8,0.88 -1.41,1.92 -1.83,3.09 -0.42,1.18 -0.63,2.43 -0.63,3.76l0 0.13c0,1.33 0.22,2.59 0.67,3.76 0.44,1.18 1.09,2.22 1.93,3.13 0.84,0.91 1.83,1.63 2.96,2.16 1.13,0.53 2.41,0.8 3.82,0.8zm-0.13 8.72c-2.75,0 -5.3,-0.48 -7.65,-1.43 -2.36,-0.95 -4.38,-2.26 -6.09,-3.92 -1.71,-1.67 -3.05,-3.62 -4.03,-5.86 -0.98,-2.24 -1.47,-4.65 -1.47,-7.22l0 -0.13c0,-2.58 0.49,-4.98 1.47,-7.22 0.97,-2.24 2.33,-4.2 4.06,-5.89 1.72,-1.69 3.77,-3.02 6.12,-3.99 2.36,-0.97 4.92,-1.47 7.72,-1.47 2.76,0 5.31,0.48 7.65,1.43 2.36,0.95 4.39,2.26 6.09,3.92 1.71,1.67 3.05,3.62 4.03,5.86 0.98,2.24 1.47,4.64 1.47,7.22l0 0.13c0,2.57 -0.49,4.98 -1.47,7.22 -0.97,2.25 -2.33,4.21 -4.06,5.89 -1.73,1.69 -3.77,3.02 -6.12,4 -2.36,0.97 -4.93,1.46 -7.73,1.46z"/>
  <polygon class="fil1" points="86.2,13.38 96.45,13.38 102.18,35.01 108.9,13.24 117.62,13.24 124.41,35.08 130.26,13.38 140.32,13.38 129.2,49.32 120.08,49.32 113.22,27.42 106.23,49.32 97.18,49.32 "/>
  <path class="fil1" d="M169.86 28.42c-0.31,-2.26 -1.11,-4.09 -2.39,-5.5 -1.29,-1.4 -2.99,-2.09 -5.12,-2.09 -2.13,0 -3.85,0.69 -5.16,2.06 -1.31,1.38 -2.17,3.22 -2.56,5.53l15.24 0zm-6.52 21.43c-2.66,0 -5.14,-0.44 -7.42,-1.33 -2.29,-0.89 -4.26,-2.15 -5.92,-3.79 -1.67,-1.64 -2.97,-3.58 -3.9,-5.82 -0.93,-2.24 -1.39,-4.74 -1.39,-7.49l0 -0.13c0,-2.53 0.43,-4.92 1.29,-7.19 0.87,-2.26 2.07,-4.24 3.63,-5.92 1.55,-1.69 3.4,-3.02 5.55,-4 2.15,-0.97 4.54,-1.46 7.16,-1.46 2.97,0 5.55,0.53 7.72,1.6 2.17,1.07 3.98,2.5 5.42,4.29 1.44,1.8 2.51,3.86 3.2,6.19 0.68,2.33 1.03,4.76 1.03,7.29 0,0.4 -0.01,0.82 -0.03,1.27 -0.02,0.44 -0.06,0.91 -0.1,1.4l-24.83 0c0.49,2.31 1.5,4.05 3.03,5.22 1.53,1.17 3.43,1.77 5.69,1.77 1.68,0 3.2,-0.29 4.53,-0.87 1.33,-0.58 2.7,-1.51 4.12,-2.79l5.8 5.12c-1.69,2.09 -3.73,3.72 -6.13,4.89 -2.4,1.17 -5.21,1.76 -8.45,1.76z"/>
  <path class="fil1" d="M187.24 13.38l10.12 0 0 7.19c1.02,-2.44 2.42,-4.39 4.19,-5.86 1.77,-1.46 4.17,-2.13 7.19,-2l0 10.58 -0.54 0c-3.37,0 -6.03,1.02 -7.95,3.06 -1.93,2.04 -2.9,5.21 -2.9,9.52l0 13.18 -10.12 0 0 -35.68z"/>
  <path class="fil1" d="M252.67 41.13c1.46,0 2.76,-0.26 3.89,-0.77 1.13,-0.51 2.1,-1.21 2.9,-2.09 0.8,-0.89 1.41,-1.92 1.83,-3.09 0.42,-1.18 0.63,-2.43 0.63,-3.76l0 -0.13c0,-1.33 -0.22,-2.58 -0.67,-3.76 -0.44,-1.18 -1.09,-2.22 -1.93,-3.13 -0.84,-0.91 -1.84,-1.63 -2.99,-2.17 -1.16,-0.53 -2.42,-0.8 -3.8,-0.8 -1.46,0 -2.76,0.26 -3.89,0.76 -1.13,0.51 -2.09,1.21 -2.9,2.1 -0.8,0.88 -1.41,1.92 -1.83,3.09 -0.42,1.18 -0.63,2.43 -0.63,3.76l0 0.13c0,1.33 0.22,2.59 0.67,3.76 0.44,1.18 1.09,2.22 1.93,3.13 0.84,0.91 1.83,1.63 2.96,2.16 1.13,0.53 2.41,0.8 3.83,0.8zm-0.13 8.72c-2.75,0 -5.3,-0.48 -7.65,-1.43 -2.36,-0.95 -4.38,-2.26 -6.09,-3.92 -1.71,-1.67 -3.05,-3.62 -4.03,-5.86 -0.98,-2.24 -1.47,-4.65 -1.47,-7.22l0 -0.13c0,-2.58 0.49,-4.98 1.47,-7.22 0.97,-2.24 2.33,-4.2 4.06,-5.89 1.72,-1.69 3.77,-3.02 6.12,-3.99 2.36,-0.97 4.93,-1.47 7.72,-1.47 2.75,0 5.31,0.48 7.65,1.43 2.36,0.95 4.39,2.26 6.09,3.92 1.71,1.67 3.05,3.62 4.03,5.86 0.98,2.24 1.46,4.64 1.46,7.22l0 0.13c0,2.57 -0.49,4.98 -1.46,7.22 -0.98,2.25 -2.33,4.21 -4.07,5.89 -1.72,1.69 -3.76,3.02 -6.12,4 -2.36,0.97 -4.93,1.46 -7.73,1.46z"/>
  <path class="fil1" d="M280.96 22.03l-4.2 0 0 -8.32 4.2 0 0 -2.26c0,-3.86 0.95,-6.74 2.86,-8.65 1.86,-1.86 4.59,-2.79 8.19,-2.79 1.6,0 2.96,0.09 4.09,0.26 1.13,0.18 2.16,0.42 3.09,0.73l0 8.39c-0.76,-0.26 -1.49,-0.47 -2.19,-0.63 -0.71,-0.15 -1.51,-0.23 -2.4,-0.23 -2.44,0 -3.66,1.29 -3.66,3.86l0 1.4 8.19 0 0 8.25 -8.06 0 0 27.02 -10.11 0 0 -27.02z"/>
  <path class="fil1" d="M339.4 41.13c1.46,0 2.76,-0.26 3.9,-0.77 1.13,-0.51 2.1,-1.21 2.9,-2.09 0.8,-0.89 1.41,-1.92 1.83,-3.09 0.42,-1.18 0.63,-2.43 0.63,-3.76l0 -0.13c0,-1.33 -0.22,-2.58 -0.67,-3.76 -0.44,-1.18 -1.09,-2.22 -1.93,-3.13 -0.84,-0.91 -1.84,-1.63 -2.99,-2.17 -1.16,-0.53 -2.42,-0.8 -3.8,-0.8 -1.46,0 -2.76,0.26 -3.89,0.76 -1.13,0.51 -2.09,1.21 -2.9,2.1 -0.8,0.88 -1.41,1.92 -1.83,3.09 -0.43,1.18 -0.63,2.43 -0.63,3.76l0 0.13c0,1.33 0.22,2.59 0.67,3.76 0.44,1.18 1.08,2.22 1.93,3.13 0.84,0.91 1.83,1.63 2.96,2.16 1.13,0.53 2.4,0.8 3.83,0.8zm-0.13 8.72c-2.75,0 -5.31,-0.48 -7.65,-1.43 -2.36,-0.95 -4.38,-2.26 -6.09,-3.92 -1.71,-1.67 -3.05,-3.62 -4.03,-5.86 -0.98,-2.24 -1.47,-4.65 -1.47,-7.22l0 -0.13c0,-2.58 0.49,-4.98 1.47,-7.22 0.97,-2.24 2.33,-4.2 4.06,-5.89 1.73,-1.69 3.77,-3.02 6.12,-3.99 2.36,-0.97 4.93,-1.47 7.72,-1.47 2.75,0 5.31,0.48 7.65,1.43 2.36,0.95 4.38,2.26 6.09,3.92 1.71,1.67 3.05,3.62 4.03,5.86 0.98,2.24 1.47,4.64 1.47,7.22l0 0.13c0,2.57 -0.49,4.98 -1.47,7.22 -0.97,2.25 -2.32,4.21 -4.06,5.89 -1.72,1.69 -3.76,3.02 -6.12,4 -2.36,0.97 -4.93,1.46 -7.72,1.46z"/>
  <path class="fil1" d="M365.96 13.38l10.12 0 0 5.1c0.58,-0.77 1.2,-1.49 1.89,-2.18 0.7,-0.69 1.46,-1.31 2.3,-1.84 0.85,-0.54 1.78,-0.96 2.8,-1.28 1.02,-0.31 2.17,-0.47 3.46,-0.47 3.86,0 6.84,1.18 8.95,3.53 2.11,2.35 3.16,5.59 3.16,9.72l0 23.1 -10.12 0 0 -19.85c0,-2.39 -0.54,-4.2 -1.6,-5.41 -1.07,-1.22 -2.57,-1.83 -4.53,-1.83 -1.95,0 -3.49,0.61 -4.62,1.83 -1.13,1.22 -1.7,3.02 -1.7,5.41l0 19.85 -10.12 0 0 -35.68z"/>
  <path class="fil1" d="M430.85 28.42c-0.31,-2.26 -1.11,-4.09 -2.4,-5.5 -1.29,-1.4 -2.99,-2.09 -5.13,-2.09 -2.13,0 -3.85,0.69 -5.16,2.06 -1.31,1.38 -2.16,3.22 -2.56,5.53l15.24 0zm-6.52 21.43c-2.67,0 -5.14,-0.44 -7.42,-1.33 -2.29,-0.89 -4.26,-2.15 -5.92,-3.79 -1.67,-1.64 -2.97,-3.58 -3.9,-5.82 -0.93,-2.24 -1.39,-4.74 -1.39,-7.49l0 -0.13c0,-2.53 0.43,-4.92 1.29,-7.19 0.86,-2.26 2.07,-4.24 3.63,-5.92 1.55,-1.69 3.4,-3.02 5.55,-4 2.16,-0.97 4.54,-1.46 7.16,-1.46 2.97,0 5.55,0.53 7.73,1.6 2.17,1.07 3.98,2.5 5.42,4.29 1.44,1.8 2.51,3.86 3.2,6.19 0.69,2.33 1.03,4.76 1.03,7.29 0,0.4 -0.01,0.82 -0.03,1.27 -0.02,0.44 -0.06,0.91 -0.1,1.4l-24.83 0c0.49,2.31 1.5,4.05 3.03,5.22 1.53,1.17 3.43,1.77 5.69,1.77 1.69,0 3.2,-0.29 4.53,-0.87 1.33,-0.58 2.7,-1.51 4.12,-2.79l5.8 5.12c-1.69,2.09 -3.73,3.72 -6.13,4.89 -2.39,1.17 -5.21,1.76 -8.45,1.76z"/>
  <path class="fil1" d="M291.4 108.96c1.2,0 2.32,-0.23 3.36,-0.7 1.04,-0.47 1.95,-1.13 2.73,-2 0.78,-0.86 1.4,-1.91 1.86,-3.12 0.46,-1.22 0.7,-2.57 0.7,-4.03l0 -0.13c0,-1.46 -0.24,-2.8 -0.7,-4.03 -0.47,-1.22 -1.09,-2.26 -1.86,-3.13 -0.78,-0.87 -1.69,-1.53 -2.73,-2 -1.04,-0.47 -2.16,-0.7 -3.36,-0.7 -1.2,0 -2.32,0.24 -3.36,0.7 -1.04,0.47 -1.97,1.13 -2.76,2 -0.8,0.86 -1.43,1.9 -1.9,3.09 -0.47,1.2 -0.7,2.55 -0.7,4.06l0 0.13c0,1.47 0.23,2.81 0.7,4.03 0.47,1.22 1.1,2.26 1.9,3.12 0.79,0.87 1.72,1.53 2.76,2 1.04,0.47 2.17,0.7 3.36,0.7zm-2.59 8.58c-2.09,0 -4.11,-0.4 -6.06,-1.2 -1.95,-0.8 -3.68,-1.99 -5.19,-3.56 -1.51,-1.58 -2.72,-3.5 -3.63,-5.79 -0.91,-2.28 -1.37,-4.91 -1.37,-7.89l0 -0.13c0,-2.97 0.46,-5.6 1.37,-7.89 0.91,-2.28 2.11,-4.22 3.59,-5.79 1.49,-1.58 3.21,-2.76 5.16,-3.57 1.95,-0.79 3.99,-1.2 6.13,-1.2 2.7,0 4.94,0.54 6.69,1.6 1.75,1.07 3.23,2.3 4.43,3.72l0 -17.57 10.12 0 0 48.59 -10.12 0 0 -5.13c-1.25,1.68 -2.74,3.07 -4.5,4.16 -1.75,1.08 -3.96,1.63 -6.62,1.63z"/>
  <path class="fil1" d="M319.09 81.2l10.12 0 0 7.18c1.02,-2.44 2.42,-4.39 4.19,-5.86 1.78,-1.46 4.17,-2.13 7.2,-2l0 10.58 -0.54 0c-3.37,0 -6.03,1.03 -7.95,3.06 -1.93,2.04 -2.9,5.22 -2.9,9.52l0 13.18 -10.12 0 0 -35.67z"/>
  <path class="fil1" d="M360.09 110.55c2.39,0 4.31,-0.58 5.76,-1.73 1.44,-1.15 2.16,-2.66 2.16,-4.53l0 -1.79c-0.89,-0.4 -1.88,-0.72 -2.96,-0.96 -1.09,-0.25 -2.26,-0.37 -3.5,-0.37 -2.18,0 -3.88,0.42 -5.13,1.27 -1.24,0.84 -1.86,2.07 -1.86,3.66l0 0.13c0,1.37 0.51,2.44 1.53,3.2 1.03,0.75 2.36,1.13 4,1.13zm-3.06 6.99c-1.69,0 -3.27,-0.23 -4.76,-0.7 -1.49,-0.47 -2.79,-1.17 -3.9,-2.1 -1.11,-0.93 -1.99,-2.07 -2.63,-3.43 -0.65,-1.35 -0.97,-2.92 -0.97,-4.69l0 -0.14c0,-1.95 0.36,-3.64 1.07,-5.06 0.71,-1.41 1.7,-2.59 2.97,-3.53 1.26,-0.93 2.77,-1.63 4.52,-2.1 1.75,-0.46 3.7,-0.7 5.82,-0.7 1.82,0 3.41,0.14 4.76,0.41 1.35,0.26 2.67,0.62 3.96,1.07l0 -0.6c0,-2.13 -0.64,-3.75 -1.93,-4.86 -1.29,-1.11 -3.19,-1.67 -5.72,-1.67 -1.96,0 -3.68,0.17 -5.16,0.5 -1.49,0.33 -3.05,0.82 -4.7,1.43l-2.53 -7.72c1.95,-0.84 3.99,-1.53 6.13,-2.06 2.12,-0.53 4.7,-0.8 7.71,-0.8 2.8,0 5.18,0.35 7.16,1.03 1.98,0.69 3.61,1.68 4.9,2.97 1.33,1.33 2.3,2.96 2.92,4.89 0.63,1.93 0.93,4.09 0.93,6.49l0 20.7 -9.78 0 0 -3.86c-1.24,1.38 -2.73,2.47 -4.46,3.29 -1.73,0.82 -3.83,1.23 -6.32,1.23z"/>
  <path class="fil1" d="M386.31 81.2l10.12 0 0 5.1c0.58,-0.77 1.21,-1.49 1.9,-2.18 0.69,-0.7 1.46,-1.31 2.29,-1.84 0.85,-0.54 1.79,-0.96 2.83,-1.27 1.05,-0.32 2.21,-0.47 3.49,-0.47 2.36,0 4.38,0.49 6.09,1.48 1.71,0.98 3.03,2.39 3.96,4.22 1.55,-1.88 3.29,-3.29 5.19,-4.26 1.91,-0.96 4.08,-1.44 6.53,-1.44 3.77,0 6.72,1.11 8.85,3.33 2.13,2.22 3.2,5.48 3.2,9.79l0 23.23 -10.12 0 0 -19.85c0,-2.39 -0.51,-4.19 -1.53,-5.41 -1.02,-1.22 -2.49,-1.83 -4.39,-1.83 -1.91,0 -3.41,0.61 -4.49,1.83 -1.08,1.22 -1.63,3.02 -1.63,5.41l0 19.85 -10.12 0 0 -19.85c0,-2.39 -0.51,-4.19 -1.53,-5.41 -1.01,-1.22 -2.48,-1.83 -4.39,-1.83 -1.91,0 -3.4,0.61 -4.49,1.83 -1.09,1.22 -1.63,3.02 -1.63,5.41l0 19.85 -10.12 0 0 -35.67z"/>
 </g>
</svg>
