<?xml version="1.0" encoding="UTF-8"?>
<!DOCTYPE svg PUBLIC "-//W3C//DTD SVG 1.1//EN" "http://www.w3.org/Graphics/SVG/1.1/DTD/svg11.dtd">
<!-- Creator: CorelDRAW 2020 (64-Bit) -->
<svg xmlns="http://www.w3.org/2000/svg" xml:space="preserve" width="54.8652mm" height="17.1139mm" version="1.1" style="shape-rendering:geometricPrecision; text-rendering:geometricPrecision; image-rendering:optimizeQuality; fill-rule:evenodd; clip-rule:evenodd"
viewBox="0 0 545.23 170.07"
 xmlns:xlink="http://www.w3.org/1999/xlink"
 xmlns:xodm="http://www.corel.com/coreldraw/odm/2003">
 <defs>
  <style type="text/css">
   <![CDATA[
    .fil1 {fill:#333333;fill-rule:nonzero}
    .fil0 {fill:#F37528;fill-rule:nonzero}
   ]]>
  </style>
 </defs>
 <g id="Слой_x0020_1">
  <metadata id="CorelCorpID_0Corel-Layer"/>
  <polygon class="fil0" points="521.57,70.9 545.23,70.9 545.23,47.25 521.57,47.25 521.57,0 426.94,0 426.94,23.66 497.91,23.66 497.91,141.53 474.26,141.53 474.26,47.25 426.94,47.25 426.94,70.9 450.6,70.9 450.6,141.53 426.94,141.53 426.94,165.19 497.91,165.19 497.91,141.67 521.57,141.67 521.57,118.22 545.23,118.22 545.23,94.56 521.57,94.56 521.57,94.49 "/>
  <path class="fil1" d="M283.25 163.46c-2.87,0 -5.6,-2.4 -5.6,-5.99 0,-3.59 2.73,-6.02 5.6,-6.02 2.93,0 5.45,2.34 5.45,5.98 0,3.8 -2.46,6.02 -5.45,6.02zm0.42 -14.08c-2.84,0 -4.67,1.59 -5.92,3.45l0 -9.49 -2.31 0 0 21.85 2.31 0 0 -2.96c1.2,1.74 3.05,3.29 5.92,3.29 3.74,0 7.39,-2.99 7.39,-8.05 0,-5.16 -3.68,-8.09 -7.39,-8.09z"/>
  <path class="fil1" d="M301.19 162.61l-5.63 -12.9 -2.55 0 7.04 15.42c-0.93,2.18 -1.79,2.9 -3.17,2.9 -0.99,0 -1.68,-0.18 -2.43,-0.57l-0.78 1.83c1.05,0.51 2.01,0.78 3.3,0.78 2.34,0 3.83,-1.17 5.15,-4.37l6.5 -15.99 -2.45 0 -4.97 12.9z"/>
  <polygon class="fil1" points="321.45,165.19 323.76,165.19 323.76,149.71 321.45,149.71 "/>
  <polygon class="fil1" points="321.3,146.33 323.93,146.33 323.93,143.78 321.3,143.78 "/>
  <path class="fil1" d="M336.03 163.46c-2.93,0 -5.45,-2.33 -5.45,-5.99 0,-3.8 2.46,-6.02 5.45,-6.02 2.87,0 5.59,2.39 5.59,5.96 0,3.63 -2.72,6.05 -5.59,6.05zm5.51 -10.78c-1.2,-1.73 -3.05,-3.3 -5.92,-3.3 -3.72,0 -7.4,3 -7.4,8.06 0,5.15 3.68,8.08 7.4,8.08 2.84,0 4.67,-1.58 5.92,-3.44l0 3.11 2.31 0 0 -21.85 -2.31 0 0 9.34z"/>
  <path class="fil1" d="M351.3 153.75l0 -4.04 -2.31 0 0 15.48 2.31 0 0 -6.17c0,-4.67 2.75,-7.1 6.13,-7.1l0.18 0 0 -2.48c-2.93,-0.12 -5.18,1.74 -6.31,4.31z"/>
  <path class="fil1" d="M370.58 159.5c0,2.45 -2.3,4.16 -5.15,4.16 -2.09,0 -3.89,-1.14 -3.89,-3.08 0,-1.92 1.65,-3.17 4.52,-3.17 1.89,0 3.39,0.33 4.52,0.66l0 1.44zm-4.37 -10.03c-2.27,0 -3.92,0.54 -5.63,1.31l0.69 1.89c1.44,-0.67 2.87,-1.11 4.7,-1.11 2.9,0 4.58,1.43 4.58,4.19l0 0.47c-1.37,-0.39 -2.76,-0.65 -4.73,-0.65 -3.92,0 -6.62,1.74 -6.62,5.06 0,3.23 2.87,4.88 5.78,4.88 2.72,0 4.49,-1.26 5.57,-2.63l0 2.3 2.27 0 0 -9.46c0,-1.98 -0.54,-3.47 -1.61,-4.55 -1.11,-1.11 -2.81,-1.71 -5,-1.71z"/>
  <path class="fil1" d="M395.42 149.38c-2.7,0 -4.34,1.38 -5.45,3.09 -0.84,-1.74 -2.45,-3.09 -4.97,-3.09 -2.61,0 -3.98,1.41 -5,2.93l0 -2.6 -2.31 0 0 15.48 2.31 0 0 -8.83c0,-2.85 1.85,-4.88 4.31,-4.88 2.45,0 3.98,1.71 3.98,4.61l0 9.1 2.27 0 0 -8.93c0,-3.05 1.95,-4.79 4.28,-4.79 2.52,0 4.01,1.68 4.01,4.67l0 9.05 2.31 0 0 -9.58c0,-3.83 -2.18,-6.23 -5.75,-6.23z"/>
  <path class="fil1" d="M-0 30.66c0,-9.71 7.43,-17.71 17.84,-17.71 6.42,0 10.35,2.41 13.52,5.96l-5.64 5.71c-2.1,-1.96 -4.13,-3.36 -7.94,-3.36 -4.82,0 -8.25,4.25 -8.25,9.4 0,5.21 3.36,9.4 8.63,9.4 3.24,0 5.46,-1.4 7.81,-3.62l5.66 5.72c-3.3,3.62 -7.11,6.22 -13.9,6.22 -10.22,0 -17.71,-7.87 -17.71,-17.71z"/>
  <polygon class="fil1" points="69.58,47.61 60.25,47.61 60.25,27.8 46.98,47.61 37.9,47.61 37.9,13.58 47.24,13.58 47.24,33.45 60.5,13.58 69.58,13.58 "/>
  <path class="fil1" d="M109.64 13.58l0 34.03 -9.64 0 0 -25.77 -8.63 0c0,22.54 -3.88,26.16 -12.39,26.16 -1.27,0 -3.62,-0.25 -4.89,-0.57l0.64 -7.81c0.38,0.06 1.59,0.19 2.03,0.19 3.62,0 5.52,-2.1 5.52,-26.22l27.36 0z"/>
  <path class="fil1" d="M138.4 35.61l0 -1.71c-1.65,-0.76 -3.81,-1.27 -6.16,-1.27 -4.13,0 -6.67,1.65 -6.67,4.82 0,2.61 2.16,4.13 5.27,4.13 4.51,0 7.55,-2.48 7.55,-5.97zm-22.16 2.1c0,-7.43 5.65,-10.86 13.71,-10.86 3.43,0 5.9,0.57 8.32,1.4l0 -0.57c0,-4 -2.48,-6.22 -7.3,-6.22 -3.68,0 -6.29,0.7 -9.4,1.84l-2.41 -7.37c3.74,-1.65 7.43,-2.73 13.2,-2.73 5.27,0 9.08,1.4 11.5,3.81 2.54,2.54 3.68,6.29 3.68,10.86l0 19.74 -9.33 0 0 -3.68c-2.35,2.6 -5.58,4.31 -10.28,4.31 -6.41,0 -11.68,-3.68 -11.68,-10.54z"/>
  <path class="fil1" d="M200.55 30.66c0,-5.01 -3.62,-9.4 -8.95,-9.4 -5.52,0 -8.82,4.25 -8.82,9.4 0,5.02 3.62,9.4 8.95,9.4 5.52,0 8.83,-4.25 8.83,-9.4zm-27.3 0c0,-9.77 7.87,-17.71 18.47,-17.71 10.54,0 18.35,7.81 18.35,17.71 0,9.78 -7.87,17.71 -18.47,17.71 -10.54,0 -18.35,-7.81 -18.35,-17.71z"/>
  <path class="fil1" d="M237.82 39.36l0 -17.52 -9.08 0 0 0.76c-0.06,5.78 -0.45,11.74 -2.54,16.76l11.62 0zm-16.32 8.25l-0.7 8 -8.13 0 0 -16.25 3.68 0c2.85,-6.1 3.3,-14.67 3.3,-22.86l0 -2.92 27.81 0 0 25.78 4.63 0 -1.14 16.25 -8.13 0 0 -8 -21.33 0z"/>
  <polygon class="fil1" points="288.54,47.61 278.89,47.61 278.89,34.59 267.02,34.59 267.02,47.61 257.37,47.61 257.37,13.58 267.02,13.58 267.02,26.66 278.89,26.66 278.89,13.58 288.54,13.58 "/>
  <path class="fil1" d="M322.82 30.66c0,-5.01 -3.62,-9.4 -8.95,-9.4 -5.52,0 -8.82,4.25 -8.82,9.4 0,5.02 3.61,9.4 8.95,9.4 5.53,0 8.82,-4.25 8.82,-9.4zm-27.3 0c0,-9.77 7.87,-17.71 18.47,-17.71 10.54,0 18.35,7.81 18.35,17.71 0,9.78 -7.87,17.71 -18.48,17.71 -10.54,0 -18.35,-7.81 -18.35,-17.71z"/>
  <polygon class="fil1" points="348.98,21.83 348.98,47.61 339.33,47.61 339.33,13.58 364.15,13.58 364.15,21.83 "/>
  <path class="fil1" d="M393.8 30.66c0,-5.01 -3.62,-9.4 -8.95,-9.4 -5.52,0 -8.82,4.25 -8.82,9.4 0,5.02 3.62,9.4 8.95,9.4 5.53,0 8.82,-4.25 8.82,-9.4zm-27.3 0c0,-9.77 7.87,-17.71 18.47,-17.71 10.54,0 18.35,7.81 18.35,17.71 0,9.78 -7.87,17.71 -18.47,17.71 -10.54,0 -18.35,-7.81 -18.35,-17.71z"/>
  <path class="fil1" d="M227.42 103.35l0 -17.52 -9.08 0 0 0.76c-0.06,5.78 -0.45,11.74 -2.54,16.76l11.61 0zm-16.32 8.25l-0.7 8 -8.13 0 0 -16.25 3.68 0c2.85,-6.09 3.3,-14.67 3.3,-22.86l0 -2.92 27.81 0 0 25.77 4.63 0 -1.14 16.25 -8.13 0 0 -8 -21.33 0z"/>
  <path class="fil1" d="M273.07 94.53c0,-5.66 -3.81,-9.4 -8.31,-9.4 -4.51,0 -8.26,3.74 -8.26,9.53 0,5.64 3.75,9.39 8.26,9.39 4.5,0 8.31,-3.68 8.31,-9.52zm-26.09 -16.95l9.65 0 0 4.89c2.35,-3.18 5.58,-5.52 10.6,-5.52 7.94,0 15.49,6.22 15.49,17.71 0,11.36 -7.43,17.58 -15.49,17.58 -5.14,0 -8.32,-2.35 -10.6,-5.08l0 14.61 -9.65 0 0 -44.19z"/>
  <path class="fil1" d="M309.96 99.6l0 -1.71c-1.65,-0.76 -3.81,-1.27 -6.16,-1.27 -4.13,0 -6.67,1.65 -6.67,4.83 0,2.6 2.16,4.13 5.27,4.13 4.51,0 7.55,-2.48 7.55,-5.97zm-22.16 2.1c0,-7.43 5.65,-10.86 13.71,-10.86 3.43,0 5.9,0.57 8.31,1.39l0 -0.56c0,-4 -2.47,-6.23 -7.3,-6.23 -3.68,0 -6.29,0.7 -9.4,1.84l-2.41 -7.36c3.74,-1.65 7.43,-2.73 13.2,-2.73 5.27,0 9.08,1.4 11.49,3.81 2.54,2.54 3.68,6.29 3.68,10.86l0 19.74 -9.33 0 0 -3.68c-2.35,2.6 -5.58,4.32 -10.29,4.32 -6.41,0 -11.68,-3.68 -11.68,-10.54z"/>
  <polygon class="fil1" points="327.41,77.57 337.19,77.57 346.4,91.86 355.73,77.57 365.51,77.57 365.51,111.6 355.73,111.6 355.73,91.16 346.27,105.12 336.94,91.35 336.94,111.6 327.41,111.6 "/>
  <path class="fil1" d="M394.27 99.6l0 -1.71c-1.65,-0.76 -3.81,-1.27 -6.16,-1.27 -4.13,0 -6.67,1.65 -6.67,4.83 0,2.6 2.16,4.13 5.27,4.13 4.51,0 7.56,-2.48 7.56,-5.97zm-22.16 2.1c0,-7.43 5.65,-10.86 13.71,-10.86 3.43,0 5.9,0.57 8.32,1.39l0 -0.56c0,-4 -2.48,-6.23 -7.3,-6.23 -3.68,0 -6.28,0.7 -9.4,1.84l-2.4 -7.36c3.74,-1.65 7.43,-2.73 13.2,-2.73 5.27,0 9.08,1.4 11.49,3.81 2.54,2.54 3.68,6.29 3.68,10.86l0 19.74 -9.33 0 0 -3.68c-2.35,2.6 -5.58,4.32 -10.29,4.32 -6.41,0 -11.68,-3.68 -11.68,-10.54z"/>
 </g>
</svg>
